<svg xmlns="http://www.w3.org/2000/svg" width="460.62" height="42.48" viewBox="0 0 460.62 42.48">
  <path id="パス_40" data-name="パス 40" d="M90.54,23.06a6.274,6.274,0,0,0-6.24-6.24H69.9l-.24-1.68v-.06a5.031,5.031,0,0,0-5.04-4.56H58.2l.9,6.3H44.46v9.54h15.9l1.02,7.2H44.46v9.48H62.64L64.02,53h10.8L73.5,43.04H90.54v-3.3a6.223,6.223,0,0,0-6.24-6.18H72.18l-.96-7.2H90.54Zm50.28,4.8H124.86l-.36-2.7a3.967,3.967,0,0,0-3.96-3.54h-4.92l.84,6.24h-7.02v7.5h8.04L119.88,53h8.4l-2.4-17.64h10.68l-4.32,8.16h8.88l4.44-8.46V32.6A4.75,4.75,0,0,0,140.82,27.86Zm47.52-6.48a5.374,5.374,0,0,0-4.8-6L167.1,13.46l-.96,8.28,21.9,2.52ZM164.94,43.4l2.4,9.6,36.42-9.18a6.626,6.626,0,0,0,4.8-4.74l1.56-7.02Zm79.32-10.62a5.1,5.1,0,0,0-3.72-6.18l-15.12-3.78-1.86,7.56,20.04,5.04Zm2.04-12.06a5.029,5.029,0,0,0-3.72-6.18l-15.06-3.78-1.92,7.56,20.04,5.04ZM222.84,43.28,224.7,53l40.5-7.8a6.478,6.478,0,0,0,4.98-4.5h.06l1.92-6.9Zm97.2,2.28h-8.76V34.58h10.74v-2.7a4.712,4.712,0,0,0-4.74-4.74H292.92v7.44h10.8V45.56h-13.5V53h34.56V50.3A4.75,4.75,0,0,0,320.04,45.56Zm35.4-35.04h-4.92L343.5,53h9.6s5.64-34.56,6.18-37.62C359.76,12.32,358.08,10.52,355.44,10.52Zm20.94,29.4V15.38a4.84,4.84,0,0,0-4.86-4.86h-4.86V53h9.72l12.36-10.26.06-.06a7.322,7.322,0,0,0,2.7-5.7v-9.6Zm73.8-28.02H449.1V22.34h3.06V13.88A1.959,1.959,0,0,0,450.18,11.9Zm-3.12,1.98a1.959,1.959,0,0,0-1.98-1.98H444V22.34h3.06Zm-22.8,18.9a5.1,5.1,0,0,0-3.72-6.18l-15.12-3.78-1.86,7.56,20.04,5.04Zm2.04-12.06a5.029,5.029,0,0,0-3.72-6.18l-15.06-3.78-1.92,7.56,20.04,5.04ZM404.7,53l40.5-7.8a6.478,6.478,0,0,0,4.98-4.5h.06l1.92-6.9-49.32,9.48Zm95.64-7.44h-3.78l2.82-11.28.06-2.4a4.75,4.75,0,0,0-4.74-4.74H474v7.44h16.56L487.8,45.56H469.92V53h35.16V50.3A4.75,4.75,0,0,0,500.34,45.56Z" transform="translate(-44.46 -10.52)" fill="#fdb3ad"/>
</svg>
